# xmcd
#
# Track frame offsets:
# 150
# 11923
# 30215
# 50770
# 67062
# 81954
# 96352
# 107240
# 117556
# 150655
# 160415
# 181804
# 193021
# 205766
# 220702
# 235365
#
# Disc length: 3434 seconds
#
#
# Revision: 0
# Processed by: cddbd v1.5.1PL0 Copyright (c) Steve Scherf et al.
# Submitted via: FreeRIP 2.70 
#
DISCID=e10d6810
DTITLE=Jim Morrison - The Doors Great
DYEAR=1965
DGENRE=Alt. Rock
TTITLE0=Light Me Fire
TTITLE1=Roadhouse Blues
TTITLE2=LA Woman
TTITLE3=Back Door Mn
TTITLE4=Love Me Two Times
TTITLE5=Touch Me
TTITLE6=Break On Trough
TTITLE7=Hello I Love You
TTITLE8=When The Music's Over
TTITLE9=People Are Strange
TTITLE10=Been Down So Long
TTITLE11=The Crystal Ship
TTITLE12=The Unkown Solider
TTITLE13=Love My Madly
TTITLE14=Albama Song
TTITLE15=Riders On The Storm
EXTD=
EXTT0=
EXTT1=
EXTT2=
EXTT3=
EXTT4=
EXTT5=
EXTT6=
EXTT7=
EXTT8=
EXTT9=
EXTT10=
EXTT11=
EXTT12=
EXTT13=
EXTT14=
EXTT15=
PLAYORDER=
